<svg xmlns="http://www.w3.org/2000/svg" viewBox="0 0 64 64" role="img" aria-label="Revere AI">
  <rect width="64" height="64" rx="12" fill="#0A3161"/>
  <!-- lantern body -->
  <path fill="#F8F6F1" d="M24 22h16a3 3 0 0 1 3 3v18a3 3 0 0 1-3 3H24a3 3 0 0 1-3-3V25a3 3 0 0 1 3-3z"/>
  <path fill="#0A3161" d="M26 26h12v14H26z"/>
  <!-- cap / handle -->
  <rect x="27" y="16" width="10" height="4" rx="1" fill="#F8F6F1"/>
  <path fill="none" stroke="#F8F6F1" stroke-width="2" stroke-linecap="round" d="M32 16v-4"/>
  <circle cx="32" cy="10" r="2" fill="#B31942"/>
  <!-- base -->
  <rect x="26" y="46" width="12" height="3" rx="1" fill="#F8F6F1"/>
  <!-- star flame -->
  <path fill="#B31942" d="M32 28.2l1.7 4.1 4.4.4-3.3 2.9 1 4.3L32 37.6l-3.8 2.3 1-4.3-3.3-2.9 4.4-.4L32 28.2z"/>
</svg>
